<svg width="48" height="48" viewBox="0 0 48 48" fill="none" xmlns="http://www.w3.org/2000/svg">
<g clip-path="url(#clip0_188_22)">
<path d="M18.3469 14.5833L27.5891 23.8254L19.104 32.3127L22.2043 35.4109L33.7745 23.8408L21.432 11.4982L18.3469 14.5833Z" fill="#F0E3CA"/>
<path d="M-1.69873e-06 24C-1.69873e-06 37.2546 10.7455 48 24 48C37.2546 48 48 37.2546 48 24C48 10.7455 37.2546 -1.69873e-06 24 -1.69873e-06C10.7455 -1.69873e-06 -1.69873e-06 10.7455 -1.69873e-06 24ZM45.8182 24C45.8182 36.0502 36.0502 45.8182 24 45.8182C11.9498 45.8182 2.1818 36.0502 2.1818 24C2.1818 11.9498 11.9498 2.1818 24 2.1818C36.0502 2.1818 45.8182 11.9498 45.8182 24Z" fill="#F0E3CA"/>
</g>
<defs>
<clipPath id="clip0_188_22">
<rect width="48" height="48" fill="white" transform="matrix(-1 0 0 -1 48 48)"/>
</clipPath>
</defs>
</svg>
