<svg width="34" height="34" viewBox="0 0 34 34" fill="none" xmlns="http://www.w3.org/2000/svg">
<path d="M16.6467 25.2697H18.3404C18.3404 25.2697 18.8507 25.2144 19.1111 24.935C19.3586 24.6746 19.3586 24.1925 19.3586 24.1925C19.3586 24.1925 19.3221 21.9214 20.3828 21.5879C21.4282 21.2567 22.7541 23.78 24.1672 24.75C25.2468 25.4913 26.0589 25.3322 26.0589 25.3322L29.8433 25.2804C29.8433 25.2804 31.8256 25.1566 30.8887 23.5997C30.8168 23.476 30.3571 22.4506 28.0943 20.3468C25.723 18.1535 26.0412 18.5071 28.891 14.705C30.6223 12.3891 31.3306 10.9736 31.1008 10.3725C30.9052 9.8068 29.6158 9.94705 29.6158 9.94705L25.3706 9.98359C25.3706 9.98359 25.0524 9.94705 24.8225 10.0897C24.5927 10.2299 24.4525 10.5505 24.4525 10.5505C24.4525 10.5505 23.7783 12.3525 22.8779 13.8741C20.965 17.0904 20.2049 17.2672 19.9043 17.0551C19.1925 16.5942 19.3751 15.1929 19.3751 14.1888C19.3751 11.0761 19.8513 9.76909 18.4547 9.43319C17.995 9.32594 17.6521 9.25641 16.4688 9.23755C14.9484 9.22105 13.6661 9.24934 12.9389 9.60409C12.4616 9.84334 12.0904 10.3725 12.3037 10.3996C12.5865 10.435 13.2218 10.5717 13.5577 11.0325C13.9997 11.6289 13.9808 12.9607 13.9808 12.9607C13.9808 12.9607 14.2295 16.6331 13.3986 17.0892C12.8152 17.398 12.0373 16.7592 10.3402 13.8411C9.47391 12.3561 8.81862 10.6943 8.81862 10.6943C8.81862 10.6943 8.69487 10.3926 8.46623 10.2158C8.19869 10.0213 7.80976 9.95059 7.80976 9.95059L3.76134 9.98594C3.76134 9.98594 3.16027 10.0048 2.9493 10.2688C2.75366 10.4986 2.93045 10.9936 2.93045 10.9936C2.93045 10.9936 6.09611 18.4034 9.68606 22.1347C12.9743 25.555 16.7057 25.3346 16.7057 25.3346L16.6467 25.2697Z" fill="black"/>
</svg>
