<svg width="48" height="48" viewBox="0 0 48 48" fill="none" xmlns="http://www.w3.org/2000/svg">
<g clip-path="url(#clip0_188_2)">
<path d="M29.6531 33.4167L20.4109 24.1746L28.896 15.6873L25.7957 12.5891L14.2255 24.1592L26.568 36.5018L29.6531 33.4167Z" fill="#F0E3CA"/>
<path d="M48 24C48 10.7454 37.2545 0 24 0C10.7454 0 0 10.7454 0 24C0 37.2545 10.7454 48 24 48C37.2545 48 48 37.2545 48 24ZM2.1818 24C2.1818 11.9498 11.9498 2.1818 24 2.1818C36.0502 2.1818 45.8182 11.9498 45.8182 24C45.8182 36.0502 36.0502 45.8182 24 45.8182C11.9498 45.8182 2.1818 36.0502 2.1818 24Z" fill="#F0E3CA"/>
</g>
<defs>
<clipPath id="clip0_188_2">
<rect width="48" height="48" fill="white"/>
</clipPath>
</defs>
</svg>
