<svg width="64" height="65" viewBox="0 0 64 65" fill="none" xmlns="http://www.w3.org/2000/svg">
<path d="M62.63 51.0603C59.74 40.5403 51.8 34.7203 48.52 32.7003C60.03 24.3203 60.25 14.6803 60.25 14.2603C60.25 13.9903 60.15 13.7403 59.96 13.5503C59.77 13.3603 59.52 13.2503 59.25 13.2503H49.61C49.17 13.2503 48.78 13.5403 48.65 13.9603C45.51 24.1203 39.14 26.9403 36.55 27.6803V14.2503C36.55 13.7003 36.1 13.2503 35.55 13.2503H26.16C25.61 13.2503 25.16 13.7003 25.16 14.2503V38.4903C22.16 37.0203 14.66 31.6203 13.81 14.2103C13.78 13.6803 13.34 13.2603 12.81 13.2603H2.32996C1.77996 13.2603 1.32996 13.7103 1.32996 14.2603V18.0903C1.32996 36.9703 16.69 52.3303 35.56 52.3303C36.11 52.3303 36.56 51.8803 36.56 51.3303V39.2603C47.08 41.1803 50.01 51.1603 50.14 51.5903C50.26 52.0203 50.66 52.3203 51.1 52.3203H61.67C61.98 52.3203 62.28 52.1703 62.46 51.9303C62.66 51.6803 62.72 51.3603 62.63 51.0603ZM51.81 50.3303C50.82 47.6503 46.63 38.4303 35.68 37.1103C35.4 37.0703 35.11 37.1603 34.9 37.3603C34.69 37.5503 34.56 37.8203 34.56 38.1103V50.3203C17.25 49.7803 3.32996 35.5303 3.32996 18.0803V15.2503H11.88C13.3 37.6003 25.41 40.7903 25.94 40.9203C26.24 40.9903 26.55 40.9203 26.79 40.7303C27.03 40.5403 27.17 40.2503 27.17 39.9403V15.2403H34.56V28.9103C34.56 29.2003 34.68 29.4703 34.9 29.6603C35.11 29.8503 35.4 29.9403 35.68 29.9103C36.1 29.8603 45.92 28.5503 50.35 15.2503H58.15C57.73 17.9403 55.72 25.5103 46.1 31.9503C45.8 32.1503 45.64 32.4903 45.66 32.8503C45.68 33.2103 45.89 33.5203 46.21 33.6803C46.32 33.7303 56.58 38.9503 60.33 50.3203H51.81V50.3303Z"/>
</svg>
